/* XPM */
static char *result[] = {
/* columns rows colors chars-per-pixel */
"78 78 85 1 ",
"  c #4F7755",
". c #4F7856",
"X c #527A55",
"o c #527D59",
"O c #5C8355",
"+ c #55825C",
"@ c #59855D",
"# c #5A885E",
"$ c #608756",
"% c #658B57",
"& c #668D58",
"* c #698F58",
"= c #6A9159",
"- c #6F995E",
"; c #739C5C",
": c #7CA45E",
"> c #578660",
", c #598760",
"< c #578861",
"1 c #5C8E65",
"2 c #5E9066",
"3 c #639465",
"4 c #6A9565",
"5 c #6C9B64",
"6 c #6D9868",
"7 c #739463",
"8 c #7C9661",
"9 c #719E63",
"0 c #749C69",
"q c #789F69",
"w c #75A162",
"e c #7AA562",
"r c #7EA861",
"t c #7DA169",
"y c #86975F",
"u c #8A995F",
"i c #939C5E",
"p c #9B9D5D",
"a c #A59F5B",
"s c #82AA5F",
"d c #A7A05B",
"f c #ABA05A",
"g c #BFA557",
"h c #B2A259",
"j c #B9A458",
"k c #819761",
"l c #859960",
"z c #83AC60",
"x c #83A46A",
"c c #88A76B",
"v c #8BA96B",
"b c #94AE6C",
"n c #88B060",
"m c #97B06C",
"M c #9CB26D",
"N c #AEB065",
"B c #A2B56D",
"V c #A7B96E",
"C c #AABA6E",
"Z c #B2BF6F",
"A c #C2A657",
"S c #CBA755",
"D c #D0A854",
"F c #F2AF4F",
"G c #F2B04F",
"H c #E2AD52",
"J c #F4B251",
"K c #F6BD58",
"L c #F9BF59",
"P c #C9B561",
"I c #B2C468",
"U c #B7C170",
"Y c #BBC470",
"T c #FAC059",
"R c #CFD26E",
"E c #C2C771",
"W c #C5C971",
"Q c #CACC72",
"! c #DBD574",
"~ c #E3D974",
"^ c #ECDE76",
"/ c #F9DE71",
"( c #F6E477",
") c #FBE677",
"_ c #FEE877",
/* pixels */
"21V)^62226~b1t((m4r3rRW22!))/JFFFJJFGGH421x()v1222QU13!_Y3r3wI!61U)))KFJFFGGFF",
"220vx2UM22t624cc525e5tw22tPTKJpllllllly3223cv4mU22tt22tvt25e9wt21qNLLJjkllllll",
"221112bc22212221223-228d21ldadfl13a71111222221tM221122112225316d417aaadi12pk11",
"1222222222222222222222yh222222hu14g7222222222222222222122222226g722211pf22hi22",
"032222222222222222222222222222222222222222222222222222222222222222222222222222",
"^x1222222222222222222222222222222222222222222222222222222222222222222222222222",
"x422222222222222222222222222222+o22222222222222222222222222222222222222<.22212",
"122222222222222222222222222222++++222222222222222222222222222222222222@++o<bB2",
"222222222222222222222222222222+++o122222222222222222222222222222222222@o>o<mC2",
"2222222222322222222222222222222+o22222222222222222222222222222222222222<.12222",
"2222222222r522222222222222222222122222222222222322ew22222222222222222221122222",
"22222225w2z5222222222222222222222222222222222223e3ew22222222222222222222222222",
"22222229r2z5222222222222222222222222222222222223z3ew22222222222222222222222221",
"22222229r2w3222222222222222222222222222222222223z3952222222222222222222222210M",
"t3222226e222222222222222222222222222222222222224e322222222222222222222222222x!",
"^x1222222222222222222222222222222222222222222222222222222222222222222222222224",
"t3222222222222222222222222222222222w5222222222222222222222222222222222222229w2",
"2222222222222222222222222222222223e5w92222222222222222222222222222222222229w5e",
"2222222222222222222222222222222222w9w52222222222222222222222222222222222225w9w",
"22222222222222222222222222222222222w5222222222222222222222222222222222222225w2",
"222222222222222222222222222222222222222222222212222222222222222222222222222231",
"222222.>22222222222222222222222222222222222222+.222222222222122222222222222222",
"22221.>++222222222222222222222222222222222222+++o12222222222222222222222222222",
"22222++o+222222222222222222222222222222222222++++22222222222222222222222222222",
"222222++22222222222222222222222222222222222222<+222222222222222222222222222222",
"243222222222222222222222222222222222222222222222222222222222222222222222222222",
"2WV222222222222222222222222222222222222222222222222222222222222222222222222222",
"ex02222222222222222222222222222222222222w5222222222222222222222222222222222222",
"ne42212222222222222222222222222222222222e:92222222222222222222222222222222210Z",
"znw1242222222222222222222233222222222222enr224412222222222222222223322222221xQ",
"rzw13z52222222222222222222:e222222222222wz:22:w12222222222222222224z3222222222",
"3e=+sn42222222222222222222ww22222222222229:.:nw12222222222222222224r3222222222",
"2O*:sO12222222222222222222we3e22222222222#$:s*@31222222222222222224z2w52222222",
"2@#&%+12222222222222222222we3:51222222222<@%%@<21222222222222222225z3r91222222",
"22@..222222222222222222222593z4222222222221XX<322222222222222222224w2r92222222",
"25422222222222222222222222223r422222222222121222222222222222222222222e52222222",
"2Ad222222222222222222222222223122222222222222222222222222222222222222222222331",
"274222222222222222222222222222222222222222222222222222222222222222222222222pj2",
"2212222222222222222:222222222222222222222222222222222122222w4222222222222228l2",
"2222222222222222239w932222222222222222222222222222221322225ww42222222222222212",
"222222222222222225e5e5122222222222222222222222222222222223e5ww2222222222222222",
"2222222222222222225r322222222222222222222222222222222222223e522222222222222222",
"222222222222222222222222222222222222222222222222222222222223222222222222222222",
"112222222222222222222222222222222222222222222222222222222222222222222222222222",
"B01222222222222222222222222222222222222222222222222222222222222222222222222222",
"!x2222222222222222222222222222211222222222222222222222222222222222222221<22222",
"2222222222222222222222222222222oX22222222222222222222222222222222222222>.12342",
"222222222222222222222222222222.++X122222222222222222222222222222222222+o<.<VW2",
"222222222222222222222222222222<++#2222222222222222222222222222222222221+o+1tt2",
"2222222222532222222222222222223<+222222222222222225422222222222222222221+12122",
"2222222332z522222222222222222222222222222222222232ew22222222222222222222222222",
"2222222we3z5222222222222222222222222222222222224n3ew22222222222222222222222222",
"22222225r3z5222222222222222222222222222222222214z3ew22222222222222222222222222",
"12222229r232222222222222222222222222222222222213s333222222222222222222222222tR",
"Zq122224522222222222222222222222222222222222222392222222222222222222222222220V",
"Qt1222222222222222222222222222222225322222222222222222222222222222222222222341",
"22222222222222222222222222222222223e922222222222222222222222222222222222222we3",
"2222222222222222222222222222222222:5we222222222222222222222222222222222222e94r",
"22222222222222222222222222222222225ww32222222222222222222222222222222222223ww5",
"222222222222222222222222222222222225322222222222222222222222222222222222222352",
"222222#<222222222222222222222222222222222222111#222222222222222222222222222222",
"222221X+12222222222222222222222222222222222221+.122222222222222222222222222222",
"22221 ++.222222222222222222222222222222222222X+# 12222222222222222222222222222",
"222221X+12222222222222222222222222222222222221+.#22222222222222222222222222222",
"212222<122222222222222222222222222222222222222,#222222222222222222222222222222",
"2vt222222222222222222222222222222322222222222232222222222222222222222222222222",
"4YV222222222222222222222222222222122222233222222222222222222222222222222222222",
"s522222222222222222222222222222222222222e9222222222222222222222212222222222223",
"nz52222222222222222222222222222222222222ezw222222222222222222222222222222222c!",
"nzw22w322222222222222222225w222222222222enr229522222222222222222223w222222216m",
"wr-#:s52222222222222222222we2222222222229r:+5zw12222222222222222225z2222222222",
"2;*%s:32222222222222222222we23222222222224;Os:512222222222222222225r3332222222",
"2o%::O@2222222222222222222we3r52222222222+OszO+22222222222222222224z3ew2222222",
"22+X.<12222222222222222222we3z322222222221#XX+122222222222222222225r3r52222222",
"222##222222222222222222222333r5222212222221+#122222222222222222122342r52222222",
"2iy2222211222222222222tM222239211121222222222222221222222222226B62222642122222",
"2fp222223x322222222222vE3t62228llk385222222222222x6112222222210Qw0t2227lll4782",
"22222222x^022222222222223!V222DGFH4Da222222222226~b12222222222222UW222fJFF8dS2"
};
