/* XPM */
static char *result[] = {
/* columns rows colors chars-per-pixel */
"78 78 183 2 ",
"   c #5A3234",
".  c #612320",
"X  c #733D2C",
"o  c #643936",
"O  c #6B3E36",
"+  c #663D39",
"@  c #693E3A",
"#  c #71412D",
"$  c #6F4033",
"%  c #6C413B",
"&  c #71453D",
"*  c #75483E",
"=  c #7C4B3E",
"-  c #344C7D",
";  c #5B475B",
":  c #674345",
">  c #694343",
",  c #65444A",
"<  c #754B42",
"1  c #744B47",
"2  c #7C4F43",
"3  c #7E5348",
"4  c #624653",
"5  c #4C496B",
"6  c #444B73",
"7  c #49527A",
"8  c #604C62",
"9  c #766161",
"0  c #80442D",
"q  c #804F42",
"w  c #825244",
"e  c #8C5946",
"r  c #845649",
"t  c #85594C",
"y  c #8D5B4A",
"u  c #925E4A",
"i  c #855C54",
"p  c #996244",
"a  c #97614C",
"s  c #9B654E",
"d  c #8E6253",
"f  c #8B655B",
"g  c #936453",
"h  c #9C6751",
"j  c #976A57",
"k  c #9B6955",
"l  c #966A5A",
"z  c #9B6D5B",
"x  c #9E715E",
"c  c #A0674E",
"v  c #A0684F",
"b  c #A36B52",
"n  c #A86E53",
"m  c #A16F5A",
"M  c #AD7256",
"N  c #A1735E",
"B  c #AE7559",
"V  c #AE785F",
"C  c #B07457",
"Z  c #B0765A",
"A  c #B1795D",
"S  c #8F6F6F",
"D  c #947874",
"F  c #A37561",
"G  c #A67966",
"H  c #AC7A63",
"J  c #AB7E6B",
"K  c #B37C62",
"L  c #AE816C",
"P  c #B58166",
"I  c #B6836A",
"U  c #B8866C",
"Y  c #B9886F",
"T  c #AB8375",
"R  c #B28875",
"E  c #BB8B72",
"W  c #BB8F7A",
"Q  c #BD917C",
"!  c #C2957E",
"~  c #184E88",
"^  c #1C4F88",
"/  c #264E84",
"(  c #284F84",
")  c #295187",
"_  c #255289",
"`  c #2C5589",
"'  c #31578A",
"]  c #365B8E",
"[  c #3A5E8F",
"{  c #3B5F90",
"}  c #3B6293",
"|  c #4A5B85",
" . c #585D81",
".. c #466A98",
"X. c #4E6E99",
"o. c #53729C",
"O. c #627397",
"+. c #4E75A2",
"@. c #567BA4",
"#. c #607EA4",
"$. c #6B84A7",
"%. c #6B85A9",
"&. c #738BAD",
"*. c #688EB1",
"=. c #7994B4",
"-. c #7B9CBA",
";. c #7EA1BD",
":. c #9C8788",
">. c #A4918F",
",. c #BD9582",
"<. c #B7958A",
"1. c #AE9895",
"2. c #BFA294",
"3. c #9B9AAA",
"4. c #859AB6",
"5. c #82A3BF",
"6. c #8EA2BC",
"7. c #95A7BF",
"8. c #BAA9A5",
"9. c #B5AAAA",
"0. c #BFB1B2",
"q. c #C19782",
"w. c #C29985",
"e. c #C49D8B",
"r. c #C09F91",
"t. c #C5A18F",
"y. c #C6A291",
"u. c #C8A695",
"i. c #C6A99B",
"p. c #CAAB9C",
"a. c #CDAFA0",
"s. c #CDB1A4",
"d. c #CEB6AB",
"f. c #D0B7AA",
"g. c #D3BAAE",
"h. c #C8B7B2",
"j. c #C2B9B8",
"k. c #D3BDB2",
"l. c #D6C1B7",
"z. c #D7C3BA",
"x. c #D9C6BC",
"c. c #DAC8BF",
"v. c #8CA8C2",
"b. c #96A9C0",
"n. c #A0AFC5",
"m. c #A3B1C6",
"M. c #A9B8CB",
"N. c #B1BDCD",
"B. c #AABDD2",
"V. c #BBC7D4",
"C. c #BEC8D5",
"Z. c #CFC8C7",
"A. c #DCCCC4",
"S. c #DDCFC9",
"D. c #DFD2CB",
"F. c #C2CAD6",
"G. c #C6CDD8",
"H. c #C8CFD8",
"J. c #CDD4DC",
"K. c #DAD5D5",
"L. c #D2D7DE",
"P. c #D8D8DB",
"I. c #E1D0C6",
"U. c #E1D4CD",
"Y. c #E1D6D2",
"T. c #E3D9D4",
"R. c #E4DEDB",
"E. c #E6E1DE",
"W. c #E8E2DF",
"Q. c #D2D9E0",
"!. c #DADEE3",
"~. c #DDE1E5",
"^. c #E4E3E4",
"/. c #E9E5E4",
"(. c None",
"). c #E4E6E8",
"_. c None",
"`. c None",
"'. c #EFF0F0",
"]. c #F4F4F4",
"[. c #F8F7F6",
"{. c #FAF8F7",
"}. c #FDFDFD",
/* pixels */
"`.`.`.`.`.`.`.`.`.`.`.`.`.`.`.`.`.`.`.`.`.`.`.`.`.`.`.`.`.`.`.`.`.`.`.`.`.`.`.`.`.`.`.`.`.`.`.`.`.`.`.`.`.`.`.`.`.`.`.`.`.`.`.`.`.`.`.`.`.`.`.`.`.`.`.`.`.`.",
"`.`.`.`.`.`.`.`.`.`.`.`.`.`.`.`.`.`.`.`.`.`.`.`.`.`.`.`.`.`.`.`.`.`.`.`.`.`.`.`.`.`.`.`.`.`.`.`.`.`.`.`.`.`.`.`.`.`.`.`.`.`.`.`.`.`.`.`.`.`.`.`.`.`.`.`.`.`.",
"`.`.`.`.`.`.`.`.`.`.`.`.`.`.`.`.`.`.`.`.`.`.`.`.`.`.`.`.`.`.`.`.`.`.`.`.`.`.`.`.`.`.`.`.`.`.`.`.`.`.`.`.`.`.`.`.`.`.`.`.`.`.`.`.`.`.`.`.`.`.`.`.`.`.`.`.`.`.",
"`.`.`.`.`.`.`.`.`.`.`.`.`.`.`.`.`.`.`.`.`.`.`.`.`.`.`.`.`.`.`.`.`.`.`.`.`.`.`.`.`.`.`.`.`.`.`.`.`.`.`.`.`.`.`.`.`.`.`.`.`.`.`.`.`.`.`.`.`.`.`.`.`.`.`.`.`.`.",
"`.`.`.`.`.`.`.`.`.`.`.`.`.`.`.`.`.`.`.`.`.`.`.`.`.`.`.`.`.`.`.`.`.`.`.`.`.`.`.`.`.`.`.`.`.`.`.`.`.`.`.`.`.`.`.`.`.`.`.`.`.`.`.`.`.`.`.`.`.`.`.`.`.`.`.`.`.`.",
"`.`.`.`.`.`.`.`.`.`.`.`.`.`.`.`.`.`.`.`.`.`.`.`.`.`.`.`.`.`.`.`.`.`.`.`.`.`.`.`.`.`.`.`.`.`.`.`.`.`.`.`.`.`.`.`.`.`.`.`.`.`.`.`.`.`.`.`.`.`.`.`.`.`.(.`.`.`.",
"`.`.`.`.`.`.`.`.`.`.`.`.`.`.`.`.`.`.`.`.`.`.`.`.`.`.`.`.`.`.`.`.`.`.`.`.].].].].].].`.`.`.`.`.`.`.`.`.`.`.`.`.`.`.`.`.`.`.`.`.`.`.`.`.`.`.`.`.`.`.`.`.`.`.`.",
"`.`.`.`.`.`.`.`.`.`.`.`.`.`.`.`.`.`.`.`.`.`.`.`.`.`.`.`.`.`.`.`.`.`.`.`.].}.}.}.}.].`.`.`.`.`.`.`.`.`.`.`.`.`.`.`.`.`.`.`.`.`.`.`.`.`.`.`.`.`.`.`.`.`.`.`.`.",
"`.`.`.`.`.`.`.`.`.`.`.`.`.`.`.`.`.`.`.`.`.`.`.`.`.`.`.`.`.`.`.`.`.`.`.].].}.[.].'.`.`.`.`.`.`.`.`.`.`.`.`.`.`.`.`.`.`.`.`.`.`.`.`.`.`.`.`.`.`.`.`.`.`.`.`.`.",
"`.`.`.`.`.`.`.`.`.`.`.`.`.`.`.`.`.`.`.`.`.`.`.`.`.`.`.`.`.`.`.`.`.`.].].}.}.K.j.K.`.`.`.`.`.`.`.`.`.`.`.`.`.`.`.`.`.`.`.`.`.`.`.`.`.`.`.`.`.`.`.`.`.`.`.`.`.",
"`.`.`.`.`.`.`.`.`.`.`.`.`.`.`.`.`.`.`.`.`.`.`.`.`.`.`.`.`.`.`.`.`.`.].}.}.[.9.1 1.(.`.`.`.`.`.`.`.`.`.`.`.`.`.`.`.`.`.`.`.`.`.`.`.`.`.`.`.`.`.`.`.`.`.`.`.`.",
"`.`.`.`.`.`.`.`.`.`.`.`.`.`.`.`.`.`.`.`.`.`.`.`.`.`.`.`.`.`.`.`.`.`.].}.}.].8.. x c.R.`.`.`.`.`.`.`.`.`.`.`.`.`.`.`.`.`.`.`.`.`.`.`.`.`.`.`.`.`.`.`.`.`.`.`.",
"`.`.`.`.`.`.`.`.`.`.`.`.`.`.`.`.`.`.`.`.`.`.`.`.`.`.`.`.`.`.`.`.`.`.].}.}.}.9.# p e.I.`.`.`.`.`.`.`.`.`.`.`.`.`.`.`.`.`.`.`.`.`.`.`.`.`.`.`.`.`.`.`.`.`.`.`.",
"`.`.`.`.`.`.`.`.`.`.`.`.`.`.`.`.`.`.`.`.`.`.`.`.`.`.`.`.`.`.`.`.`.`.].}.}.].9.# p q.S.`.`.`.`.`.`.`.`.`.`.`.`.`.`.`.`.`.`.`.`.`.`.`.`.`.`.`.`.`.`.`.`.`.`.`.",
"`.`.`.`.`.`.`.`.`.`.`.`.`.`.`.`.`.`.`.`.`.`.`.`.`.`.`.`.`.`.`.`.`.`.].}.}.].9.# p q.I.`.`.`.`.`.`.`.`.`.`.`.`.`.`.`.`.`.`.`.`.`.`.`.`.`.`.`.`.`.`.`.`.`.`.`.",
"`.`.`.`.`.`.`.`.`.`.`.`.`.`.`.`.`.`.`.`.`.`.`.`.`.`.`.`.`.`.`.`.`.`.].}.}.{.h.y b q.S.`.`.`.`.`.`.`.`.`.`.(.`.`.`.`.`.`.`.`.`.`.`.`.`.`.`.`.`.`.`.`.`.`.`.`.",
"`.`.`.`.`.`.`.`.`.`.`.`.`.`.`.`.`.`.`.`.`.`.`.`.`.`.`.`.`.`.`.`.`.`.].}.}.{.z.P A ! A.`.`.`.`.`.`.`.`.`.`.`.`.`.`.`.`.`.`.`.`.`.`.`.`.`.`.`.`.`.`.`.`.`.`.`.",
"`.`.`.`.`.`.`.`.`.`.`.`.`.`.`.`.`.`.`.`.`.`.`.`.`.`.`.`.`.`.`.`.`.`.].}.}.[.k.Z K p.Y.`.`.`.`.`.`.`.`.`.`.`.`.`.`.`.`.`.`.`.`.`.`.`.`.`.`.`.`.`.`.`.`.`.`.`.",
"`.`.`.`.`.`.`.`.`.`.`.`.`.`.`.`.`.`.`.`.`.`.`.`.`.`.`.`.`.`.`.`.`.`.].}.}.[.8.# R T./.`.`.`.`.`.`.`.`.`.`.`.`.`.`.`.`.`.`.`.`.`.`.`.`.`.`.`.`.`.`.`.`.`.`.`.",
"`.`.`.`.`.`.`.`.`.`.`.`.`.`.`.`.`.`.`.`.`.`.`.`.`.`.`.`.`.`.`.`.`.`.].}.}.}.0.D 0.`.`.`.`.`.`.`.`.`.`.`.`.`.`.`.`.`.`.`.`.`.`.`.`.`.`.`.`.`.`.`.`.`.`.`.`.`.",
"`.`.`.`.`.`.`.`.`.`.`.`.`.`.`.`.`.`.(.`.`.`.`.`.`.`.`.`.`.`.`.`.`.'.].}.}.}.(.K.^.`.`.`.`.`.`.`.`.`.`.`.`.`.`.`.`.`.`.`.`.`.`.`.`.`.`.`.`.`.`.`.`.`.`.`.`.`.",
"`.`.`.`.`.`.`.`.`.`.`.`.`.`.`.`.`.`.`.`.`.`.`.`.`.`.`.`.`.`.`.`.`.`.].}.}.}.}.}.'.`.`.`.`.`.`.`.`.`.`.`.`.`.`.`.`.`.`.`.`.`.`.`.`.`.`.`.`.`.`.`.`.`.`.`.`.`.",
"`.`.`.`.`.`.`.`.`.`.`.`.`.`.`.`.`.`.`.`.`.`.`.`.`.`.`.`.`.`.`.`.`.`.].].{.}.}.}.'.`.`.`.`.`.`.`.`.`.`.`.`.`.`.`.`.`.`.`.`.`.`.`.`.`.`.`.`.`.`.`.`.`.`.`.`.`.",
"`.`.`.`.`.`.`.`.`.`.`.`.`.`.`.`.`.`.`.`.`.`.`.`.`.`.`.`.`.`.`.`.`.`.`.`.[.}.}.}.].`.`.`.`.`.`.`.`.(.^././.(.^.(.^.(././.(./.^./.(.(.`.`.`.`.`.`.`.`.`.`.`.`.",
"`.`.`.`.`.`.`.`.`.`.`.`.`.`.`.`.`.`.`.`.`.`.`.`.`.`.`.`.`.`.`.`.`.`.`.`.].}.}.}.[.].`.`.`.`.`.`.`.T.s.u.p.a.a.a.p.p.p.s.s.p.p.p.z.(.`.`.`.`.`.`.`.`.`.`.`.`.",
"`.`.`.`.`.`.`.`.`.(.`.`.`.`.`.`.`.`.`.`.`.`.`.`.`.`.`.`.`.`.`.`.`.`.`.`.}.}.}.}.}.}.'.`.`.`.`.`.`.k.U K K K K K K A H K K A V A e.R.`.`.`.`.`.`.`.`.`.`.`.`.",
"`.`.`.`.`.`.`.`.`.`.`.`.`.`.`.`.`.`.`.`.`.`.`.`.`.`.`.`.`.`.`.`.`.`.`.`.`.}.}.}.}.}.].`.`.`.`.R.x.a.r.e.e.K C U t.y.! A Z Q t.e.u.g.D.(.`.`.`.`.`.`.`.`.`.`.",
"`.`.`.`.`.`.`.`.`.`.`.`.`.`.`.`.`.`.`.`.`.`.`.`.`.`.`.`.`.`.`.`.`.`.`.`.`.`.}.}.}.}.'.`.`.`.`.A.W e.Y./.T.r.K p.E.^.A.E I z.^.E.k.E u.E.`.`.`.`.`.`.`.`.`.`.",
"`.`.`.`.`.`.`.`.`.`.`.`.`.`.`.`.`.`.`.`.`.`.`.`.`.`.`.`.`.`.`.`.`.`.`.`.`.`.R.R.].}.'.`.`./.S.2.b J A.T.A.<.m r.U.T.k.J H f.T.U.p.Z w.R.`.`.`.`.`.`.`.`.`.`.",
"`.`.`.`.`.`.`.`.`.`.`.`.`.`.`.`.`.`.`.`.`.`.`.`.`.`.`.`.`.`.`.`.`.`.`.`.`.^.1.>.R.}.'.`.`.U.e.m 2 d Y q.E z q F ! ! R y r J ! ! P M e.^.`.`.`.`.`.`.`.`.`.`.",
"`.`.`.`.`.`.`.`.`.`.`.`.`.`.`.`.`.`.`.`.`.`.`.`.`.`.`.`.`.`.`.`.`.`.`.`.`.P.9 > Z.{.'.`.`.A.Y c r t c b c q @ e c b u * & u c c b B u.E.`.`.`.`.`.`.`.`.`.`.",
"`.`.`.`.`.`.`.`.`.`.`.`.`.`.`.`.`.`.`.`.`.`.`.`.`.`.`.`.`.`.`.`.`.`.`.`.'.P.S 1 j.'.`.`.'.A.Y C F k q = q O o > w 0 = O o * = = e M u.E.`.`.`.`.`.`.`.`.`.`.",
"`.`.`.`.`.`.`.`.`.`.`.`.`.`.`.`.`.`.`.`.`.^.T.T.T.T.Y.Y.K.T.T.T.T.T.T.T.R.A.D 1 1.D.Y.T.T.k.Y K Y F 3 < < 2 2 2 2 1 2 2 2 2 1 < y n u.W.`.`.`.`.`.`.`.`.`.`.",
"`.`.`.`.`.`.`.`.`.`.`.`.`.`.`.`.`.`.`.`.(.z.e.e.e.w.,.q.q.e.e.,.! ! w.e.e.W d < F w.q.,.q.W I I Y P F x x N F x x x x N F x x x N B y.E.`.`.`.`.`.`.`.`.`.`.",
"`.`.`.`.`.`.`.`.`.`.`.`./.R.R.R.E.E.E.E.Y.t.Z M M V P K A M M K K K B B A V y < a C Z P K P Y Y Y Y Y Y Y Y Y Y Y Y Y Y Y Y R Y P Z e./.`.`.`.`.`.`.`.`.`.`.",
"`.`.`.`.`.`.`.`.`.`.`.R.s.w.t.y.p.u.t.y.e.I M M K e.g.g.y.A I p.k.f.Q A ! p.S < a P t.g.k.p.Q Y Y Y E E E E Y Y E E Y E E E E E I Z y.R.`.`.`.`.`.`.`.`.`.`.",
"`.`.`.`.`.`.`.`.(./.(.A.Q B A V B A A K A Z M M I l.(.`.z.I W D.(.W.p.H p.T.:.< j Y x._.^.A.Q U Y I Y I Y I Y Y I P U U U I U U K A r.R.`.`.`.`.`.`.`.`.`.`.",
"`.`.`.`.`.`.`./.z.s.s.a.p.p.p.Q B I u.a.u.E B s z i.A.A.p.l G f.I.x.<.l <.k.T & 0 x p.c.9.1.Q I K H K K K K P K P P P P P P P P A B y.W.'.`.`.`.`.`.`.`.`.`.",
"`.`.`.`.`.`.`.R.e.A A ,.S.(.^.d.H e.T.`.K.u.M w 3 G ! ! L 3 d Y ! Q z 2 x R l % o 3 L R f d L I Z M M B B B B B M M M B B M M M C C r.^.`.`.`.`.`.`.`.`.`.`.",
"`.`.`.`.`.`.`.T.Q M n Y g.U.D.y.z R x.Y.A.,.u & > a N N f % < l N x t % i x 3 +   & d x d g V P K A K K V b a b A P V s a n P A A Z e.^.`.`.`.`.`.`.`.`.`.`.",
"`.`.`.`.`.`.`.Y.q.M n K W w.w.G 3 l Q e.! x & + % 1 1 2 < % % < 2 2 & % * 2 & % + % % t G P Z V P U U U I j = z I Y L w 3 V R U K V r.W.`.`.`.`.`.`.`.`.`.`.",
"`.`.`.`.`.`.`.E.s.W K Z K P P z w g K I K j 2 2 t 0 = = = w w = = = = 3 r 0 2 w w 2 = y A P A P Y I H L P k r x U Y P u e V U I K Z e.W.`.`.`.`.`.`.`.`.`.`.",
"`.`.`.`.`.`.`.`.R.z.E M Z B B M b n B Z B n b b v v c c v v b v v v v b v v v v v v h v M P P U Y F t h Z M b C Z P C n n C P C C Z y.R.`.`.`.`.`.`.`.`.`.`.",
"`.`.`.`.`.`.`.`.`.T.Q M Z A B Z C Z V B V B C M C A A A A Z Z Z A A A Z C Z P A A C A A M C P U U j % = h b b k v v v b b v v n C C y.W.`.`.`.`.`.`.`.`.`.`.",
"`.`.`.`.`.`.`.`.`.K.E M K I I K Z A P I P A M M Z K U U K Z A K U I A C A I I P A C P P C M Z P P h % % 2 3 3 = = = 3 2 = = e b C C r.W.`.`.`.`.`.`.`.`.`.`.",
"`.`.`.`.`.`.`.`.`.Y.t.I I Y I P Z A I Y I A M M Z P Y Y I Z A I U U P C A U Y P A Z I I Z M M v v a % % + % $ % % % % + % % = b C Z r.W.`.`.`.`.`.`.`.`.`.`.",
"`.`.`.`.`.`.`.`.`.(.D.p.I A A A Z Z A P K Z Z C Z A K K A Z Z K P P C C A P P A Z Z A A Z b u w w = % % % %   % % % % + %   3 b C C r.W.`.`.`.`.`.`.`.`.`.`.",
"`.`.`.`.`.`.`.`.`.`.`.D.Q V M n M n n n n n n n n n n n n n n n n n n n n n n n M b M M M s * + % % % % % % % % % % % % % $ 3 b C Z r.W.`.`.`.`.`.`.`.`.`.`.",
"`.`.`.`.`.`.`.`.(.`.`.E.z.w.K v y e e e e y y y y y e e y y y y e e y y y e e y y y e e u w % + % % % % % % % % % % % % + + 3 b C M e.W.'.`.`.`.`.`.`.`.`.`.",
"`.`.`.`.`.`.`.`.`.`.`.`.(.c.U a < @ @ % % % % % % % % % % % @ % % & % % % % % % % % % % % % % % % % % % % % % % % % % % + + 2 b C C r./.`.`.`.`.`.`.`.`.`.`.",
"`.`.`.`.`.`.`.`.`.`.`.`.(.A.U u @   o @ + + + + + + + @ @ @ @ @ + + + + + + + + + + + + @ @ % % % % % % % % % % % % % % % + w b C C e.E.`.`.`.`.`.`.`.`.`.`.",
"`.`.`.`.`.`.`.`.`.`.`.`.`.A.U h < + % > % % % % % % % @ @ % @ @ @ @ % % @ % % @ % % % % % % % % % % % % % % % % % % % % @ + w b C K e.W.`.`.`.`.`.`.`.`.`.`.",
"`.`.`.`.`.`.`.`.`.`.`.`.`.T.a.J u e e 0 % % % % % % % % @ % % % & % % % % % % % % % % % % % % % % % % % % % % % % % % % % + w b K w.k.(.`.`.`.`.`.`.`.`.`.`.",
"`.`.`.`.`.`.`.`.`.`.`.`.`.(.R.a.K n b e % @ % % % % % % % % % % @ % % % % % % % % % % % % % % % % % % % % % % % % % % % % + w b q.I._.`.`.`.`.`.`.`.`.`.`.`.",
"`.`.`.`.`.`.`.`.`.`.`.`.`.`.'.U.y.J S i % O % % % % % % % % % % % % % % % % % % % % % % % % % % % % % % % % % % % % % % % O t R g./.`.`.(.`.`.`.`.`.`.`.`.`.",
"`.`.`.`.`.`.`.`.`.`.`.`.`.`.`.(.Y.3. .8 $ $ % % % % % % % % % % % % % % % % % % % % % % % % % % % % % % % % % % % % % % % O l h.W.`.`.`.`.`.`.`.`.`.`.`.`.`.",
"`.`.`.`.`.`.`.`.`.`.`.`.`.`.`.`.`.B.+.7 4 % $ $ % % % % % % % % % % % % % % % % % % % % % % % % % % % % % % % % % % % $ % , 9 Q.'.`.`.`.`.`.`.`.`.`.`.`.`.`.",
"`.`.`.`.`.`.`.`.`.`.`.`.`.`.`.`.`.!.B.$.7 4 $ X $ % % % % % % % % % % % % % % % % % % % % % % % % % % % % % % % % % % # , 5 O.J.`.`.`.`.`.`.`.`.`.`.`.`.`.`.",
"`.`.`.`.`.`.`.`.`.`.`.`.`.`.`.`.`.`._.-.` 5 , : , % % $ % $ % % % % % % & % % $ % % O & % $ % % % % % $ % % % % % $ % % 8 | *.J.`.`.`.`.`.`.`.`.`.`.`.`.`.`.",
"`.`.`.`.`.`.`.`.`.`.`.`.`.`.`.`.`.`.).-.` - 6 6 5 , # # $ $ $ $ X $ $ $ X $ $ $ X $ $ $ $ $ $ $ $ $ $ $ # $ $ $ # # % 5 | -.V.).`.`.`.`.`.`.`.`.`.`.`.`.`.`.",
"`.`.`.`.`.`.`.`.`.`.`.`.`.`.`.`.`.`.^.7.} ) ^ ~ ( ; % : : : : : : > > > : > : > : > : > > > > : : : : : : : : : > % ; 7 @.C.`.`.`.`.`.`.`.`.`.`.`.`.`.`.`.`.",
"`.`.`.`.`.`.`.`.`.`.`.`.`.`.`.`.`.`._.G.6...^ ~ ( 6 5 5 5 5 5 5 5 5 5 5 5 5 5 5 5 5 5 5 5 5 5 5 5 5 5 5 5 5 5 5 5 5 7 $.B.~.`.`.(.`.`.`.`.`.`.`.`.`.`.`.`.`.",
"`.`.`.`.`.`.`.`.`.`.`.`.`.`.`.`.`.`.`.`.!.=.] ' ' ' ' ' ' ` ' ' ` ( ( / / / / ( / / ( ( ( ( _ ) ` ' ` ' ' ' ' ' ` ` ..V._.`.`.`.`.`.`.`.`.`.`.`.`.`.`.`.`.`.",
"`.`.`.`.`.`.`.`.`.`.`.`.`.`.`.`.`.`.`.`.`.F.7.4.6.5.;.5.;.-.-.-.+._ ^ ^ ^ ^ ^ ^ ^ ^ ^ ^ ^ ^ ^ } *.-.-.-.;.5.5.5.;.=.v.Q.`.`.`.`.`.`.`.`.`.`.`.`.`.`.`.`.`.`.",
"`.`.`.`.`.`.`.`.`.`.`.`.`.`.`.`.`.`.`.`.`._.!.~.).!.^.!.!.!.~.!.b.{ / / / ) ) ) ) ) ) ) ) / ) #.G.).!.!.).!.~.!.!.!.)._.`.`.`.`.`.`.`.`.`.`.`.`.`.`.`.`.`.`.",
"`.`.`.`.`.`.`.`.`.`.`.`.`.`.`.`.`.`.`.`._.F.m.n.m.m.n.n.V.^.`.'.G.4.%.&.&.&.&.&.&.&.&.&.&.&.#.m.).`.`.Q.M.n.m.n.N.~.`.`.`.`.`.`.`.`.`.`.`.`.`.`.`.`.`.`.`.`.",
"`.`.`.`.`.`.`.`.`.`.`.`.`.`.`.`.`.`.`.`.^.4.{ [ { ..] [ $.H.'.`.).Q.J.Q.Q.Q.Q.Q.Q.Q.L.L.Q.L.L.E._.`._.n...] { ] o.N.`.`.`.`.`.`.`.`.`.`.`.`.`.`.`.`.`.`.`.`.",
"`.`.`.`.`.`.`.`.`.`.`.`.`.`.`.`.`.`.`.`.^.b.o.X.+.o.X.X.=.L.`.`.`.`.`.`.'.`.`.`.`.`.`.`.`.`.`.`.`.`._.m.#.X.o.X.#.N.`.`.`.`.`.`.`.`.`.`.`.`.`.`.`.`.`.`.`.`.",
"(.`.`.`.`.`.`.`.`.`.`.`.`.`.`.`.`.`.`.`.`.Q.F.F.F.F.F.F.H.(.`.`.`.`.`.`.`.`.`.`.`.`.`.`.`.`.`.`.`.`.(.!.F.F.F.V.G.!.'.`.`.`.`.`.`.`.`.`.`.`.`.`.`.`.`.`.`.`.",
"`.`.`.`.`.`.`.`.`.`.`.`.`.`.`.`.`.`.`.(.`.`.`.`.`.`.`.`.`.`.`.`.`.`.`.`.`.`.`.`.`.`.`.`.`.`.`.`.`.`.`.`.`.`.`.`.`.`.`.`.(.`.`.`.`.`.`.`.`.`.`.`.`.`.`.`.`.`.",
"`.`.`.`.`.`.`.`.`.`.`.`.`.`.`.`.`.`.`.`.`.`.`.`.`.`.`.`.`.`.`.`.`.`.`.(.`.`.`.`.`.`.`.`.`.`.`.`.`.`.`.`.`.`.`.`.`.`.`.`.`.`.`.`.`.`.`.`.`.`.`.`.`.`.`.`.`.`.",
"`.`.`.`.`.`.`.`.`.`.`.`.`.`.`.`.`.`.`.`.`.`.`.`.`.`.`.`.`.`.`.`.`.`.`.`.`.`.`.`.`.`.`.`.`.`.`.`.`.`.`.`.`.`.`.`.`.`.`.`.`.`.`.`.`.`.`.`.`.`.`.`.`.`.`.`.`._.",
"`.`.`.`.`.`.`.`.`.`.`.`.`.`.`.`.`.`.`.`.`.`.`.`.`.`.`.`.`.`.`.`.`.`.`.`.`.`.`.`.`.`.`.`.`.`.`.`.`.`.`.`.`.`.`.`.`.`.`.`.`.`.`.`.`.`.`.`.`.`.`.`.`.`.`.`.`.`.",
"`.`.`.`.`.`.`.`.`.`.`.`.`.`.`.`.`.`.`.`.`.`.`.`.`.`.`.`.`.`.`.`.`.`.`.`.`.`.`.`.`.`.`.`.`.`.`.`.`.`.`.`.`.`.`.`.`.`.`.`.`.`.`.`.`.`.`.`.`.`.`.`.`.`.`.`.`.`.",
"`.`.`.`.`.`.`.`.`.`.`.`.`.`.`.`.`.`.`.`.`.`.`.`.`.`.`.`.`.`.`.`.`.`.`.`.`.`.`.`.`.`.`.`.`.`.`.`.`.`.`.`.`.`.`.`.`.`.`.`.`.`.`.`.`.`.`.`.`.`.`.`.`.`.`.`.`.`.",
"`.`.`.`.`.`.`.`.`.`.`.`.`.`.`.`.`.`.`.`.`.`.`.`.`.`.`.`.`.`.`.`.`.`.`.`.`.`.`.`.`.`.`.`.`.`.`.`.`.`.`.`.`.`.`.`.`.`.`.`.`.`.`.`.`.`.`.`.`.`.`.`.`.`.`.`.`.`.",
"`.`.`.`.`.`.`.`.`.`.`.`.`.`.`.`.`.`.`.`.`.`.`.`.`.`.`.`.`.`.`.`.`.`.`.`.`.`.`.`.`.`.`.`.`.`.`.`.`.`.`.`.`.`.`.`.`.`.`.`.`.`.`.`.`.`.`.`.`.`.`.`.`.`.`.`.`.`.",
"`.`.`.`.`.`.`.`.`.`.`.`.`.`.`.`.`.`.`.`.`.`.`.`.`.`.`.`.`.`.`.`.`.`.`.`.`.`.`.`.`.`.`.`.`.`.`.`.`.`.`.`.`.`.`.`.`.`.`.`.`.`.`.`.`.`.`.`.`.`.`.`.`.`.`.`.`.`."
};
