/* XPM */
static char *result[] = {
/* columns rows colors chars-per-pixel */
"78 75 9 1 ",
"  c #1E120E",
". c #142A10",
"X c #31241B",
"o c #4C3728",
"O c #22431D",
"+ c #497937",
"@ c #689D49",
"# c #82848E",
"$ c None",
/* pixels */
"$$$$$$$$$$$$$$$$$$$$$$$$$$$$$$$$$$$$$$$$$$$$$$$$$$$$$$$$$$$$$$$$$$$$$$$$$$$$$$",
"$$$$$$$$$$$$$$$$$$$$$$$$$$$$$$$$$$$$$$$$$$$$$$$$$$$$$$$$$$$$$$$$$$$$$$$$$$$$$$",
"$$$$$$$$$$$$$$$$$$$$$$$$$$$$$$$$$$$$$$$$$$$$$$$$$$$$$$$$$$$$$$$$$$$$$$$$$$$$$$",
"$$$$$$$$$$$$$$$$$$$$$$$$$$$$$$$$$$$$$$$$$$$$$$$$$$$$$$$$$$$$$$$$$$$$$$$$$$$$$$",
"$$$$$$$$$$$$$$$$$$$$$$$$$$$$$$$$$$$$$$$$$$$$$$$$$$$$$$$$$$$$$$$$$$$$$$$$$$$$$$",
"$$$$$$$$$$$$$$$$$$$$$$$$$$$$$$$$$$$$$$$$$$$$$$$$$$$$$$$$$$$$$$$$$$$$$$$$$$$$$$",
"$$$$$$$$$$$$$$$$$$$$$$$$$$$$$$$$$$$$$$$$$$$$$......$$$$$$$$$$$$$$$$$$$$$$$$$$$",
"$$$$$$$$$$$$$$$$$$$$$$$$$$$$$$$$$$$$$$$$$$$$$......$$$$$$$$$$$$$$$$$$$$$$$$$$$",
"$$$$$$$$$$$$$$$$$$$$$$$........$$$$$$$$$$$$..@@@@@@..$$$$$$$$$$$$$$$$$$$$$$$$$",
"$$$$$$$$$$$$$$$$$$$$$$$........$$$$$$$$$$$$..@@@@@@..$$$$$$$$$$$$$$$$$$$$$$$$$",
"$$$$$$$$$$$$$$$$$$$$$..@@@@@@@@..$$$$....$$@@@@@@@@@@......$$$$$$$$$$$$$$$$$$$",
"$$$$$$$$$$$$$$$$$$$$$..@@@@@@@@..$$$$....$$@@@@@@@@@@......$$$$$$$$$$$$$$$$$$$",
"$$$$$$$$$$$$$$$$$$$$$..@@@@@@@@@@....++++..@@@@@@@@@@..++++..$$$$$$$$$$$$$$$$$",
"$$$$$$$$$$$$$$$$$$$$$..@@@@@@@@@@....++++..@@@@@@@@@@..++++..$$$$$$$$$$$$$$$$$",
"$$$$$$$$$$$$$$$$$......@@@@@@@@@@@@..@@@@..@@@@@@@@..++@@@@++..$$$$$$$$$$$$$$$",
"$$$$$$$$$$$$$$$$$......@@@@@@@@@@@@..@@@@..@@@@@@@@..++@@@@++..$$$$$$$$$$$$$$$",
"$$$$$$$$$$$$$$$..++@@@@++@@@@@@@@@@@@@@@@++@@@@@@@@@@@@@@@@@@..$$$$$$$$$$$$$$$",
"$$$$$$$$$$$$$$$..++@@@@++@@@@@@@@@@@@@@@@++@@@@@@@@@@@@@@@@@@..$$$$$$$$$$$$$$$",
"$$$$$$$$$$$......@@@@@@@@@@@@@@@@@@@@@@@@@@@@@@@@@@@@@@@@@@++..$$$$$$$$$$$$$$$",
"$$$$$$$$$$$......@@@@@@@@@@@@@@@@@@@@@@@@@@@@@@@@@@@@@@@@@@++..$$$$$$$$$$$$$$$",
"$$$$$$$$$..@@@@..@@@@@@@@@@@@@@@@@@@@@@@@@@@@@@@@@@@@@@@@++....$$$$$$$$$$$$$$$",
"$$$$$$$$$..@@@@..@@@@@@@@@@@@@@@@@@@@@@@@@@@@@@@@@@@@@@@@++....$$$$$$$$$$$$$$$",
"$$$$$$$$$..@@@@@@@@@@@@@@@@@@@@@@@@@@@@@@@@@@@@@@@@@@@@@@@@@@@@..$$$$$$$$$$$$$",
"$$$$$$$$$..@@@@@@@@@@@@@@@@@@@@@@@@@@@@@@@@@@@@@@@@@@@@@@@@@@@@..$$$$$$$$$$$$$",
"$$$$$$$$$..@@++@@@@@@@@@@@@@@@@@@@@@@@@@@@@@@@@@@@@@@@@@@@@@@@@@@..$$$$$$$$$$$",
"$$$$$$$$$..@@++@@@@@@@@@@@@@@@@@@@@@@@@@@@@@@@@@@@@@@@@@@@@@@@@@@..$$$$$$$$$$$",
"$$$$$$$$$$$..@@@@@@@@@@@@@@@@@@@@@@@@@@@@@@@@@@@@@@@@@@@@@@@@@@@@@@..$$$$$$$$$",
"$$$$$$$$$$$..@@@@@@@@@@@@@@@@@@@@@@@@@@@@@@@@@@@@@@@@@@@@@@@@@@@@@@..$$$$$$$$$",
"$$$$$$$$$$$..@@@@@@@@@@@@@@@@@@@@@@@@@@@@@@@@@@@@@@@@@@@@++@@@@@@@@..$$$$$$$$$",
"$$$$$$$$$$$..@@@@@@@@@@@@@@@@@@@@@@@@@@@@@@@@@@@@@@@@@@@@++@@@@@@@@..$$$$$$$$$",
"$$$$$$$$$..++@@@@++@@@@@@@@@@@@@@@@@@@@@@@@@@@@@@@@@@@@@@@@++@@@@@@..$$$$$$$$$",
"$$$$$$$$$..++@@@@++@@@@@@@@@@@@@@@@@@@@@@@@@@@@@@@@@@@@@@@@++@@@@@@..$$$$$$$$$",
"$$$$$$$$$..@@@@@@++++@@@@@@@@@@@@@@@@@@@@@@@@@@++@@@@@@@@@@OOOO++++..$$$$$$$$$",
"$$$$$$$$$..@@@@@@++++@@@@@@@@@@@@@@@@@@@@@@@@@@++@@@@@@@@@@OOOO++++..$$$$$$$$$",
"$$$$$$$..++@@@@++@@@@@@@@@@@@@@@@@@@@@@@@@@@@@@@@OO++@@@@++@@@@....$$$$$$$$$$$",
"$$$$$$$..++@@@@++@@@@@@@@@@@@@@@@@@@@@@@@@@@@@@@@OO++@@@@++@@@@....$$$$$$$$$$$",
"$$$$$$$..++++OOOO@@@@@@@@@@@@@@@@@@@@@@@@@@@@@@@@@@OOOO++++@@@@@@..$$$$$$$$$$$",
"$$$$$$$..++++OOOO@@@@@@@@@@@@@@@@@@@@@@@@@@@@@@@@@@OOOO++++@@@@@@..$$$$$$$$$$$",
"$$$$$$$....OOOO@@@@@@@@++@@@@@@@@@@@@@@@@@@@@@@@@@@@@++++@@@@@@++OO..$$$$$$$$$",
"$$$$$$$....OOOO@@@@@@@@++@@@@@@@@@@@@@@@@@@@@@@@@@@@@++++@@@@@@++OO..$$$$$$$$$",
"$$$$$$$$$....OO@@@@@@@@++@@@@@@@@++@@@@@@@@@@@@++@@@@@@++++++++++++..$$$$$$$$$",
"$$$$$$$$$....OO@@@@@@@@++@@@@@@@@++@@@@@@@@@@@@++@@@@@@++++++++++++..$$$$$$$$$",
"$$$$$$$$$..++++@@@@@@++@@@@@@@@@@@@++@@@@@@@@@@@@++@@@@++++OOOO++++..$$$$$$$$$",
"$$$$$$$$$..++++@@@@@@++@@@@@@@@@@@@++@@@@@@@@@@@@++@@@@++++OOOO++++..$$$$$$$$$",
"$$$$$$$..++@@@@++++++++@@@@++@@@@@@++@@@@@@@@@@@@++++++@@@@++OOOOOO..$$$$$$$$$",
"$$$$$$$..++@@@@++++++++@@@@++@@@@@@++@@@@@@@@@@@@++++++@@@@++OOOOOO..$$$$$$$$$",
"$$$$$$$..OO@@@@@@@@++++++@@@@++++++++@@@@@@@@@@++++++++@@@@@@++OOOO..$$$$$$$$$",
"$$$$$$$..OO@@@@@@@@++++++@@@@++++++++@@@@@@@@@@++++++++@@@@@@++OOOO..$$$$$$$$$",
"$$$$$$$$$..++@@@@@@@@++@@@@@@@@++++@@++@@@@++++++OO@@@@++@@@@++....  $$$$$$$$$",
"$$$$$$$$$..++@@@@@@@@++@@@@@@@@++++@@++@@@@++++++OO@@@@++@@@@++....  $$$$$$$$$",
"$$$$$$$$$  ..++OO@@@@++@@@@@@@@++@@@@@@++@@@@OOOO++@@@@@@@@++++OO..XX  $$$$$$$",
"$$$$$$$$$  ..++OO@@@@++@@@@@@@@++@@@@@@++@@@@OOOO++@@@@@@@@++++OO..XX  $$$$$$$",
"$$$$$$$  ..++++++OO++++@@@@@@++OO@@@@@@@@@@@@@@..++++OO@@++++OOOO..XX  $$$$$$$",
"$$$$$$$  ..++++++OO++++@@@@@@++OO@@@@@@@@@@@@@@..++++OO@@++++OOOO..XX  $$$$$$$",
"$$$$$$$  ..++++++..++++OO++++OOOO++@@@@++@@@@++....OO++++OOOOOOOO..XX  $$$$$$$",
"$$$$$$$  ..++++++..++++OO++++OOOO++@@@@++@@@@++....OO++++OOOOOOOO..XX  $$$$$$$",
"$$$$$$$  ..++++OO..OOOO++++++OOOO++++++++OO++++OO..OO++++..OOOOOO..####$$$$$$$",
"$$$$$$$  ..++++OO..OOOO++++++OOOO++++++++OO++++OO..OO++++..OOOOOO..####$$$$$$$",
"$$$$$$$  XX..OOOO....OO++++++++OOOO++++++OOOOOOOO....OOOO........######$$$$$$$",
"$$$$$$$  XX..OOOO....OO++++++++OOOO++++++OOOOOOOO....OOOO........######$$$$$$$",
"$$$$$$$######....XX..OOOO..++++OOOO..OOOOOOOOOO..XXXX....  ############$$$$$$$",
"$$$$$$$######....XX..OOOO..++++OOOO..OOOOOOOOOO..XXXX....  ############$$$$$$$",
"$$$$$$$$$######  oooo......OOOOOO..XX..........  XXooooooXX  ########$$$$$$$$$",
"$$$$$$$$$######  oooo......OOOOOO..XX..........  XXooooooXX  ########$$$$$$$$$",
"$$$$$$$$$$$####  ooooooXXXX......ooooooXX  ######  XXoooooo  ######$$$$$$$$$$$",
"$$$$$$$$$$$####  ooooooXXXX......ooooooXX  ######  XXoooooo  ######$$$$$$$$$$$",
"$$$$$$$$$$$$$######ooXXXX  ####  ooooXX  ######################$$$$$$$$$$$$$$$",
"$$$$$$$$$$$$$######ooXXXX  ####  ooooXX  ######################$$$$$$$$$$$$$$$",
"$$$$$$$$$$$$$$$$$##########################################$$$$$$$$$$$$$$$$$$$",
"$$$$$$$$$$$$$$$$$##########################################$$$$$$$$$$$$$$$$$$$",
"$$$$$$$$$$$$$$$$$$$$$$$$$$$$$$$$$$$$$$$$$$$$$$$$$$$$$$$$$$$$$$$$$$$$$$$$$$$$$$",
"$$$$$$$$$$$$$$$$$$$$$$$$$$$$$$$$$$$$$$$$$$$$$$$$$$$$$$$$$$$$$$$$$$$$$$$$$$$$$$",
"$$$$$$$$$$$$$$$$$$$$$$$$$$$$$$$$$$$$$$$$$$$$$$$$$$$$$$$$$$$$$$$$$$$$$$$$$$$$$$",
"$$$$$$$$$$$$$$$$$$$$$$$$$$$$$$$$$$$$$$$$$$$$$$$$$$$$$$$$$$$$$$$$$$$$$$$$$$$$$$",
"$$$$$$$$$$$$$$$$$$$$$$$$$$$$$$$$$$$$$$$$$$$$$$$$$$$$$$$$$$$$$$$$$$$$$$$$$$$$$$"
};
