/* XPM */
static char *result[] = {
/* columns rows colors chars-per-pixel */
"78 78 212 2 ",
"   c #050301",
".  c #0B0605",
"X  c #0B0806",
"o  c #150B07",
"O  c #1B120B",
"+  c #05071A",
"@  c #0C121F",
"#  c #1A1613",
"$  c #191717",
"%  c #1E1916",
"&  c #25160B",
"*  c #23160C",
"=  c #2B130D",
"-  c #29190E",
";  c #261A12",
":  c #2B1C12",
">  c #231D1A",
",  c #321E11",
"<  c #3B1B17",
"1  c #2E2115",
"2  c #25211E",
"3  c #2C231D",
"4  c #332215",
"5  c #392515",
"6  c #3D2916",
"7  c #34261C",
"8  c #3A2619",
"9  c #3C291A",
"0  c #141923",
"q  c #211924",
"w  c #211634",
"e  c #242423",
"r  c #282420",
"t  c #2B2725",
"y  c #2D2C2A",
"u  c #352B23",
"i  c #352C27",
"p  c #38312A",
"a  c #3C332C",
"s  c #2B2B33",
"d  c #323131",
"f  c #3C3935",
"g  c #373538",
"h  c #3C3C3D",
"j  c #4A300E",
"k  c #422D1D",
"l  c #46301E",
"z  c #49321E",
"x  c #452F23",
"c  c #453121",
"v  c #4B3523",
"b  c #4F3825",
"n  c #433229",
"m  c #4A382B",
"M  c #533223",
"N  c #523B27",
"B  c #543D29",
"V  c #463A34",
"C  c #573D32",
"Z  c #59412D",
"A  c #59452C",
"S  c #46403C",
"D  c #5E4532",
"F  c #584738",
"G  c #6C4F2D",
"H  c #634835",
"J  c #6A4E3A",
"K  c #685432",
"L  c #6E513C",
"P  c #745238",
"I  c #141844",
"U  c #122858",
"Y  c #2F3657",
"T  c #113066",
"R  c #273461",
"E  c #374369",
"W  c #2A4578",
"Q  c #3A507A",
"!  c #4A4642",
"~  c #494647",
"^  c #4B4B4B",
"/  c #554D45",
"(  c #5B5349",
")  c #494B57",
"_  c #595456",
"`  c #5B5B5B",
"'  c #685748",
"]  c #785843",
"[  c #7D5E49",
"{  c #675E54",
"}  c #7B614D",
"|  c #65605D",
" . c #786354",
".. c #575963",
"X. c #434B75",
"o. c #49517C",
"O. c #5E6376",
"+. c #676767",
"@. c #6C6C6B",
"#. c #736A69",
"$. c #77726E",
"%. c #676A72",
"&. c #6C6E7B",
"*. c #747375",
"=. c #7A7673",
"-. c #707178",
";. c #75757D",
":. c #7D7C7D",
">. c #84624C",
",. c #89664C",
"<. c #816E49",
"1. c #876952",
"2. c #8C6A53",
"3. c #926E55",
"4. c #827055",
"5. c #957056",
"6. c #95735B",
"7. c #9A755B",
"8. c #9F785E",
"9. c #A27A5D",
"0. c #897966",
"q. c #957B6A",
"w. c #887F76",
"e. c #A57D62",
"r. c #A97F63",
"t. c #8E816E",
"y. c #8B867E",
"u. c #938772",
"i. c #9C8670",
"p. c #978974",
"a. c #9A8A74",
"s. c #A58066",
"d. c #A98165",
"f. c #A5836A",
"g. c #AC8B6E",
"h. c #AC8C72",
"j. c #AA9279",
"k. c #B29479",
"l. c #164186",
"z. c #284686",
"x. c #2A539A",
"c. c #36589B",
"v. c #2D5DAB",
"b. c #3E5FA0",
"n. c #2F60AE",
"m. c #3561AA",
"M. c #3E64AA",
"N. c #3265B5",
"B. c #3868B4",
"V. c #566792",
"C. c #737682",
"Z. c #767983",
"A. c #7C7E8A",
"S. c #636D90",
"D. c #4A6DAB",
"F. c #5475B3",
"G. c #7E808A",
"H. c #7D8692",
"J. c #7F8DAE",
"K. c #828283",
"L. c #898787",
"P. c #82848D",
"I. c #8C8C8B",
"U. c #988D87",
"Y. c #838691",
"T. c #858993",
"R. c #898B94",
"E. c #8D8F98",
"W. c #8E9099",
"Q. c #959494",
"!. c #999897",
"~. c #92949C",
"^. c #9C9C9B",
"/. c #A59585",
"(. c #AB9584",
"). c #AC9C85",
"_. c #A79691",
"`. c #A89793",
"'. c #B8A287",
"]. c #B4A38A",
"[. c #BAA58A",
"{. c #BCA88E",
"}. c #B7A894",
"|. c #BDAC93",
" X c #8290AF",
".X c #9C9DA4",
"XX c #8B98B8",
"oX c #A3A3A2",
"OX c #A2A4AB",
"+X c #A8A9AD",
"@X c #B0AEAD",
"#X c #A9AAB3",
"$X c #B4B4B3",
"%X c #B5B6BB",
"&X c #BCBCBC",
"*X c #C2AF95",
"=X c #C6B59A",
"-X c #CBBA9D",
";X c #BDBDC2",
":X c #BFC0C4",
">X c #C2C2C6",
",X c #C7C7C9",
"<X c #CCCCCD",
"1X c #CECFD2",
"2X c #D3D3D3",
"3X c #D7D7D9",
"4X c #DCDCDC",
"5X c #DEDFE0",
"6X c #DFE0E1",
"7X c #E4E4E4",
"8X c None",
"9X c gray94",
/* pixels */
"8X8X8X8X8X8X8X8X8X8X8X8X8X8X8X8X8X8X8X8X8X8X8X8X8X8X8X8X8X8X8X8X8X8X8X8X8X8X8X8X8X8X8X8X8X8X8X8X8X8X8X8X8X8X8X8X8X8X8X8X8X8X8X8X8X8X8X8X8X8X8X8X8X8X8X8X8X8X",
"8X8X8X8X8X8X8X8X8X8X8X8X8X8X8X8X8X8X8X8X8X8X8X8X8X8X8X8X8X8X8X8X8X8X8X8X8X8X8X8X8X8X8X8X8X8X8X8X8X8X8X8X8X8X8X8X8X8X8X8X8X8X8X8X8X8X8X8X8X8X8X8X8X8X8X8X8X8X",
"8X8X8X8X8X8X8X8X8X8X8X8X8X8X8X8X8X8X8X8X8X8X8X8X8X8X8X8X8X8X8X8X8X8X8X8X8X8X8X8X8X8X8X8X8X8X8X8X8X8X8X8X8X8X8X8X8X8X8X8X8X8X8X8X8X8X8X8X8X8X8X8X8X8X8X8X8X8X",
"8X8X8X8X8X8X8X8X8X8X8X8X8X8X8X8X8X8X8X8X8X8X8X8X8X8X8X8X8X8X8X8X8X8X8X8X8X8X8X8X8X8X8X8X8X8X8X8X8X8X8X8X8X8X8X8X8X8X8X8X8X8X8X8X8X8X8X8X8X8X8X8X8X8X8X8X8X8X",
"8X8X8X8X8X8X8X8X8X8X8X8X8X8X8X8X8X8X8X8X8X8X8X8X8X8X8X8X8X8X8X8X8X8X8X8X8X8X8X8X8X8X8X8X8X8X8X8X8X8X8X8X8X8X8X8X9X8X8X8X8X8X8X8X8X8X8X8X8X8X8X8X8X8X8X8X8X8X",
"8X8X8X8X8X8X8X8X8X8X8X8X8X8X8X8X8X8X8X8X8X8X8X8X8X8X8X8X8X8X8X8X8X8X8X8X8X8X8X8X8X8X8X8X8X8X8X8X8X8X8X8X8X8X8X8X8X8X8X8X8X8X8X8X8X8X8X8X8X8X8X8X8X8X8X8X8X8X",
"8X8X8X8X8X8X8X8X8X8X8X8X8X8X8X8X8X8X8X8X8X8X8X8X8X8X8X8X8X8X8X8X8X8X8X8X8X8X8X8X8X8X8X8X8X8X8X8X8X8X8X8X8X8X8X8X8X8X8X8X8X8X8X8X8X8X8X8X8X8X8X8X8X8X8X8X8X8X",
"8X8X8X8X8X8X8X8X8X8X8X8X8X8X8X8X8X8X8X8X8X8X8X8X8X8X8X8X8X8X8X8X8X8X8X8X8X8X8X8X8X8X8X8X8X8X8X8X8X8X8X8X8X8X8X8X8X8X8X8X8X8X8X8X8X8X8X8X8X8X8X8X8X8X8X8X8X8X",
"8X8X8X8X8X8X8X8X8X8X8X8X8X8X8X8X8X8X8X8X8X8X8X8X8X8X8X8X8X8X8X8X8X8X8X8X8X8X8X8X8X8X8X8X8X8X8X8X8X8X8X8X8X8X8X8X8X8X8X8X8X8X8X8X8X8X8X8X8X8X8X8X8X8X8X8X8X8X",
"8X8X8X8X8X8X8X8X8X8X8X8X8X8X8X8X8X8X8X8X8X8X8X8X8X8X8X8X8X8X8X8X8X8X8X8X8X8X8X8X8X8X8X8X8X8X8X8X8X8X8X8X8X8X8X8X8X8X8X8X8X8X8X8X8X8X8X8X8X8X8X8X8X8X8X8X8X8X",
"8X8X8X8X8X8X8X8X8X8X8X8X8X8X8X8X8X8X8X8X8X8X8X8X8X8X8X8X8X8X8X8X8X8X8X8X8X8X8X8X8X8X8X8X8X8X8X8X8X8X8X8X8X8X8X8X8X8X8X8X8X8X8X8X8X8X8X8X8X8X8X8X8X8X8X8X8X8X",
"8X8X8X8X8X8X8X8X8X8X8X8X8X8X8X8X8X8X8X8X8X8X8X8X8X8X8X8X8X8X8X8X8X8X8X8X8X8X8X8X8X8X8X8X8X8X8X8X8X8X8X8X8X8X8X8X8X8X8X8X8X8X8X8X8X8X8X8X8X8X8X8X8X8X8X8X8X8X",
"8X8X8X8X8X8X8X8X8X8X8X8X8X8X8X8X8X8X8X8X8X8X8X8X8X8X8X8X8X8X8X8X8X8X8X8X8X8X8X8X8X8X8X8X8X8X8X8X8X8X8X8X8X8X8X8X8X8X8X8X8X8X8X8X8X8X8X8X8X8X8X8X8X8X8X8X8X8X",
"8X8X8X8X8X8X8X8X8X8X8X8X8X8X8X8X8X8X8X8X8X8X8X8X8X8X8X8X8X8X8X8X8X8X8X8X8X8X8X8X8X8X8X8X8X8X8X8X8X8X8X8X8X8X8X8X8X8X8X8X8X8X8X8X8X8X8X8X8X8X8X8X8X8X8X8X8X8X",
"8X8X8X8X8X8X8X8X8X8X8X8X8X8X8X8X8X8X8X8X8X8X8X8X8X8X8X8X8X8X8X8X8X8X8X8X8X8X8X8X8X8X8X8X8X8X8X8X8X8X8X8X8X8X8X8X8X8X8X8X8X8X8X8X8X8X8X8X8X8X8X8X8X8X8X8X8X8X",
"8X8X8X8X8X8X8X8X8X8X8X8X8X8X8X8X8X8X8X8X8X8X8X8X8X8X8X8X8X8X8X8X8X8X8X8X8X8X8X8X8X8X8X8X8X8X8X8X8X8X8X8X8X8X8X8X8X8X8X8X8X8X8X8X8X8X8X8X8X8X8X8X8X8X8X8X8X8X",
"8X8X8X8X8X8X8X8X8X8X8X8X8X8X8X8X8X8X8X8X8X8X8X8X8X8X8X8X8X8X8X8X8X8X8X8X8X8X8X8X8X8X8X8X8X8X8X8X8X8X8X8X8X8X8X8X8X8X8X8X8X8X8X8X8X8X8X8X8X8X8X8X8X8X8X8X8X8X",
"8X8X8X8X8X8X8X8X8X8X8X8X8X8X8X8X8X8X8X8X8X8X8X8X8X8X8X8X8X8X8X8X8X8X8X8X8X8X8X8X8X8X8X8X8X8X8X8X8X8X8X8X8X8X8X8X8X8X8X8X8X8X8X8X8X8X8X8X8X8X8X8X8X8X8X8X8X8X",
"8X8X8X8X8X8X8X8X8X8X8X8X8X8X8X8X8X8X8X8X8X8X8X8X8X8X8X5X2X1X2X1X1X1X<X2X5X8X7X3X<X<X2X7X8X8X8X8X8X8X8X8X8X8X8X8X8X8X8X8X8X8X8X8X8X8X8X8X8X8X8X8X8X8X8X8X8X8X",
"8X8X8X8X8X8X8X8X8X8X8X8X8X8X8X8X8X8X8X8X8X8X8X8X8X8X7X$XK.@.$.*.*.*.+.y.:X8X2XI.@.@.I.,X9X8X8X8X8X8X8X8X8X8X8X8X8X8X8X8X8X8X8X8X8X8X8X8X8X8X8X8X8X8X8X8X8X8X",
"8X8X8X8X8X8X8X8X8X8X8X8X8X8X8X8X8X8X8X8X8X8X8X8X8X8X6XI.d $ 2 r 3 2 $ d L.3X@XS # o h !.4X5X4X7X8X8X8X8X8X8X8X8X8X8X8X8X8X8X8X8X8X8X8X8X8X8X8X8X8X8X8X8X8X8X",
"8X8X8X8X8X8X8X8X8X8X8X8X8X8X8X8X8X8X8X8X8X8X8X8X8X8X6X*.> o - 1 1 : O 1 ( I.$.7 & . $ ` ^.^.^.:X5X8X8X8X8X8X8X8X8X8X8X8X8X8X8X8X8X8X8X8X8X8X8X8X8X8X8X8X8X8X",
"8X8X8X8X8X8X8X8X8X8X8X8X8X8X8X8X8X8X8X8X8X8X8X8X8X8X6X:.r O c b z l 6 7 3 y V v 9 O X $ y e y y.<X9X8X8X8X8X8X8X8X8X8X8X8X8X8X8X8X8X8X8X8X8X8X8X8X8X8X8X8X8X",
"8X8X8X8X8X8X8X8X8X8X8X8X8X8X8X8X8X8X8X8X8X8X8X8X8X8X7Xy.t O 9 b N A v l 1 * 7 b v 1 O # ; ; > ( !.<X7X8X8X8X8X8X8X8X8X8X8X8X8X8X8X8X8X8X8X8X8X8X8X8X8X8X8X8X",
"8X8X8X8X8X8X8X8X8X8X8X8X8X8X8X8X8X8X8X8X8X8X8X8X8X8X8XL.e   O 4 v A b z 6 1 9 N b 8 4 5 9 c l p ! K.1X8X8X8X8X8X8X8X8X8X8X8X8X8X8X8X8X8X8X8X8X8X8X8X8X8X8X8X",
"8X8X8X8X8X8X8X8X8X8X8X8X8X8X8X8X8X8X8X8X8X8X8X8X7X5X>X$.3 . o 1 l b Z N c l l v b k k v N Z N 9 1 S ^.2X7X8X8X8X8X8X8X8X8X8X8X8X8X8X8X8X8X8X8X8X8X8X8X8X8X8X",
"8X8X8X8X8X8X8X8X8X8X8X8X8X8X8X8X8X8X8X8X8X8X8X8X7X$X@.S 3 - 4 k v N Z N N z v N b v v N N Z N v 6 p ( Q.<X8X8X8X8X8X8X8X8X8X8X8X8X8X8X8X8X8X8X8X8X8X8X8X8X8X",
"8X8X8X8X8X8X8X8X8X8X8X8X8X8X8X8X8X8X8X8X8X8X8X8X,X@.$ * 5 x v N N N b N N N N B N N N N N N N N b l 1 f ^.4X8X8X8X8X8X8X8X8X8X8X8X8X8X8X8X8X8X8X8X8X8X8X8X8X",
"8X8X8X8X8X8X8X8X8X8X8X8X8X8X8X8X8X8X8X8X8X8X3X$X:.V ; 4 l b N B B N N N N N N N N N Z N N N N B A z 6 7 | !.,X7X8X8X8X8X8X8X8X8X8X8X8X8X8X8X8X8X8X8X8X8X8X8X",
"8X8X8X8X8X8X8X8X8X8X8X8X8X8X8X8X8X8X8X8X8X9X&X+.2 1 8 k b N N N N N N N N N N N N N N N N N N Z b N b c p S Q.3X8X8X8X8X8X8X8X8X8X8X8X8X8X8X8X8X8X8X8X8X8X8X",
"8X8X8X8X8X8X8X8X8X8X8X8X8X8X8X8X8X8X8X8X8X9X$X~   - 9 v N B B N b v N N N N N N N b v l l z v v N N A v : % y.2X8X8X8X8X8X8X8X8X8X8X8X8X8X8X8X8X8X8X8X8X8X8X",
"8X8X8X8X8X8X8X8X8X8X8X8X8X8X8X8X8X8X8X8X8X9X$X~   ; 9 v N B B b c l v N B N N B b c k 6 6 l z N N N A v : % G.4X8X8X8X8X8X8X8X8X8X8X8X8X8X8X8X8X8X8X8X8X8X8X",
"8X8X8X8X8X8X8X8X8X8X8X8X8X8X8X8X8X8X8X8X8X9X$X^   = 9 k M N b v k 9 c N B N N B v k 8 x v C H B N v N v , r -.&X7X8X8X8X8X8X8X8X8X8X8X8X8X8X8X8X8X8X8X8X8X8X",
"8X8X8X8X8X8X8X8X8X8X8X8X8X8X8X8X8X8X8X8X8X9X$X^   : 9 k k c c k 9 k z N N N B B c - 5 J >.2.,.L z 5 z N 9 7 V +.oX3X8X8X8X8X8X8X8X8X8X8X8X8X8X8X8X8X8X8X8X8X",
"8X8X8X8X8X8X8X8X8X8X8X8X8X8X8X8X8X8X8X8X8X9X%X^ . : 9 k k 9 9 9 8 k z N N N N N c 9 B >.9.d.9.>.B k v N k 8 ; 3 +.<X8X8X8X8X8X8X8X8X8X8X8X8X8X8X8X8X8X8X8X8X",
"8X8X8X8X8X8X8X8X8X8X8X8X8X8X8X8X8X8X8X8X8X8X$X^   - 9 k k k 9 , - , l N B N z 5 b J >.7.r.r.9.7.>.J B k k 5 * # ` ,X8X8X8X8X8X8X8X8X8X8X8X8X8X8X8X8X8X8X8X8X",
"8X8X8X8X8X8X8X8X8X8X8X8X8X8X8X8X8X8X8X8X8X8X$X^   - 9 c v z k 8 4 9 c N B M z 5 H ,.8.r.s.s.s.s.9.,.Z , 5 5 * % ` <X8X8X8X8X8X8X8X8X8X8X8X8X8X8X8X8X8X8X8X8X",
"8X8X8X8X8X8X8X8X8X8X8X8X8X8X8X8X8X8X8X8X8X9X%X^   : 9 v N N z v H H B z z N B Z L ,.5.f.g.g.g.f.6.] v & < 8 * ; ` ,X8X8X8X8X8X8X8X8X8X8X8X8X8X8X8X8X8X8X8X8X",
"8X8X8X8X8X8X8X8X8X8X8X8X8X8X8X8X8X8X8X8X8X9X$X^   - 9 c B v z H >.,.H 8 , b P ,.<.H ' a.'.[.].a.' x * O 4 8 * # ` ,X8X8X8X8X8X8X8X8X8X8X8X8X8X8X8X8X8X8X8X8X",
"8X8X8X8X8X8X8X8X8X8X8X8X8X8X8X8X8X8X8X8X8X9X$X^   : 9 c v z N L 7.9.[ N j z [ s.6.7 p u.|.=X|.u.n     X : 5 3 f :.2X7X8X8X8X8X8X8X8X8X8X8X8X8X8X8X8X8X8X8X8X",
"8X8X8X8X8X8X8X8X8X8X8X8X8X8X8X8X8X8X8X8X8X9X$XS   : 9 x x k v L 5.e.7.>.M < [ j.i.u r t.|.-X|.u.y     X O ; / U.,X7X8X8X8X8X8X8X8X8X8X8X8X8X8X8X8X8X8X8X8X8X",
"8X8X8X8X8X8X8X8X8X8X8X8X8X8X8X8X8X8X8X8X8X9X&X` % : 8 9 9 6 k J 3.r.d.q.] Z $.'.j.( / u.|.=X|.p.F 2 # X o p I.2X7X8X8X8X8X8X8X8X8X8X8X8X8X8X8X8X8X8X8X8X8X8X",
"8X8X8X8X8X8X8X8X8X8X8X8X8X8X8X8X8X8X8X8X8X8X2X^.| p : 4 8 , , D 2.r.d.r.q.0.j.|.].u.t.j.|.=X|.k.u.| p # h G.:X7X8X8X8X8X8X8X8X8X8X8X8X8X8X8X8X8X8X8X8X8X8X8X",
"8X8X8X8X8X8X8X8X8X8X8X8X8X8X8X8X8X8X8X8X8X8X8X7X%X{ > : 8 , = H 3.r.9.d.j.].}.|.|.}.].|.|.|.|.*X{.p./ t L.2X8X8X8X8X8X8X8X8X8X8X8X8X8X8X8X8X8X8X8X8X8X8X8X8X",
"8X8X8X8X8X8X8X8X8X8X8X8X8X8X8X8X8X8X8X8X8X8X8X8X4X^.^ 3 4 n H } 7.r.e.e.h.[.|.|.|.|.=X|.|.|.*X*X[.a.F y oX7X8X8X8X8X8X8X8X8X8X8X8X8X8X8X8X8X8X8X8X8X8X8X8X8X",
"8X8X8X8X8X8X8X8X8X8X8X8X8X8X8X8X8X8X8X8X8X8X8X8X8X5X%X` u B 1.e.r.r.e.e.r.g.k.{.=X|.|.|.|.|.=Xk.k.6.A e !.4X9X8X8X8X8X8X8X8X8X8X8X8X8X8X8X8X8X8X8X8X8X8X8X8X",
"8X8X8X8X8X8X8X8X8X8X8X8X8X8X8X8X8X8X8X8X8X8X8X8X8X8X6X.X{ ' 3.5.3.3.8.r.e.e.h.).{.[.'.'.|.|.[.k.6.[ ( ` $X7X8X8X8X8X8X8X8X8X8X8X8X8X8X8X8X8X8X8X8X8X8X8X8X8X",
"8X8X8X8X8X8X8X8X8X8X8X8X8X8X8X8X8X8X8X8X8X8X8X8X8X8X8X3X$Xw.F c x J 3.r.r.r.r.g.h.h.g.g.g.k.g.t.F F U.%X2X8X8X8X8X8X8X8X8X8X8X8X8X8X8X8X8X8X8X8X8X8X8X8X8X8X",
"8X8X8X8X8X8X8X8X8X8X8X8X8X8X8X8X8X8X8X8X8X8X8X8X8X8X8X8X2X!.S > > F ,.7.9.9.e.r.f.f.f.r.f.e.8.>.n ! oX7X8X8X8X8X8X8X8X8X8X8X8X8X8X8X8X8X8X8X8X8X8X8X8X8X8X8X",
"8X8X8X8X8X8X8X8X8X8X8X8X8X8X8X8X8X8X8X8X8X8X8X8X8X8X7X:X!.y.u.t.q.0.1.[ P P 0.U.`.`.`.`._.q.] P ]  .w.^.,X8X8X8X8X8X8X8X8X8X8X8X8X8X8X8X8X8X8X8X8X8X8X8X8X8X",
"8X8X8X8X8X8X8X8X8X8X8X8X8X8X8X8X8X8X8X8X8X8X8X8X8X8X7XL.! | (.*X|.).4.i o < #..X#X#X#X#X.XC.v K 5.2.F h oX5X8X8X8X8X8X8X8X8X8X8X8X8X8X8X8X8X8X8X8X8X8X8X8X8X",
"8X8X8X8X8X8X8X8X8X8X8X8X8X8X8X8X8X8X8X8X8X8X8X8X8X8X7X*.f ' ].-X-X|.4., + R V.J.XXXXXXXX XO.j G 9.5.m % Q.5X9X8X8X8X8X8X8X8X8X8X8X8X8X8X8X8X8X8X8X8X8X8X8X8X",
"8X8X8X8X8X8X8X8X8X8X8X8X8X8X8X8X8X8X8X8X8X8X8X8X8X8X7X=.f { ).-X-X].<.d U c.D.F.F.F.F.F.D.Q 9 P 9.5.C q !.4X8X8X8X8X8X8X8X8X8X8X8X8X8X8X8X8X8X8X8X8X8X8X8X8X",
"8X8X8X8X8X8X8X8X8X8X8X8X8X8X8X8X8X8X8X8X8X8X8X8X8X8X7X:.f F i.).`./.#.E z.B.N.v.v.n.N.N.v.W 6 G ,.} F ~ +X7X8X8X8X8X8X8X8X8X8X8X8X8X8X8X8X8X8X8X8X8X8X8X8X8X",
"8X8X8X8X8X8X8X8X8X8X8X8X8X8X8X8X8X8X8X8X8X8X8X8X8X8X7X:.y 7 ' #.&.S.V.c.m.B.v.x.x.v.N.N.m.Q 6 j B F _ ;.:X7X8X8X8X8X8X8X8X8X8X8X8X8X8X8X8X8X8X8X8X8X8X8X8X8X",
"8X8X8X8X8X8X8X8X8X8X8X8X8X8X8X8X8X8X8X8X8X8X8X8X8X7X3XG.y o O w T l.c.M.M.b.x.z.z.c.m.N.c.Q 6 o o s O..X,X7X8X8X8X8X8X8X8X8X8X8X8X8X8X8X8X8X8X8X8X8X8X8X8X8X",
"8X8X8X8X8X8X8X8X8X8X8X8X8X8X8X8X8X8X8X8X8X8X8X8X8X1X#XP._ y . + I R E o.Q W T U R R o.o.X.Y ; % g ..C.~.OX%X2X7X8X8X8X8X8X8X8X8X8X8X8X8X8X8X8X8X8X8X8X8X8X8X",
"8X8X8X8X8X8X8X8X8X8X8X8X8X8X8X8X8X8X8X8X8X8X8X8X5X%XR.Y.A.) q . : u A Z n q 0 @ q i n Z A k $ s %.Y.Y.P.G.~.;X7X8X8X8X8X8X8X8X8X8X8X8X8X8X8X8X8X8X8X8X8X8X8X",
"8X8X8X8X8X8X8X8X8X8X8X8X8X8X8X8X8X8X8X8X8X8X8X8X5X+XZ.G.Y.&.) g F H K K Z a y d n B D K G A h ..A.E.T.A.C.P.%X5X8X8X8X8X8X8X8X8X8X8X8X8X8X8X8X8X8X8X8X8X8X8X",
"8X8X8X8X8X8X8X8X8X8X8X8X8X8X8X8X8X8X8X8X8X8X8X8X7X#XG.A.H.A.-.&.-.*.=.=.$.@.@.%.-.$.$.*.$.=.&.C.A.H.P.G.Z.R.;X7X8X8X8X8X8X8X8X8X8X8X8X8X8X8X8X8X8X8X8X8X8X8X",
"8X8X8X8X8X8X8X8X8X8X8X8X8X8X8X8X8X8X8X8X8X8X8X8X7X>X.XR.H.G.T.R.T.H.H.H.H.T.R.R.T.Y.H.H.H.Y.T.Y.Y.A.A.Y.E.OX<X7X8X8X8X8X8X8X8X8X8X8X8X8X8X8X8X8X8X8X8X8X8X8X",
"8X8X8X8X8X8X8X8X8X8X8X8X8X8X8X8X8X8X8X8X8X8X8X8X8X5X1X+XY.Z.A.A.A.A.A.A.A.G.G.A.A.A.A.A.A.A.A.A.A.Z.Z.R.%X2X7X8X8X8X8X8X8X8X8X8X8X8X8X8X8X8X8X8X8X8X8X8X8X8X",
"8X8X8X8X8X8X8X8X8X8X8X8X8X8X8X8X8X8X8X8X8X8X8X8X8X8X7X,X.XW.E..X~.~.~.~.~.~.~.~..XW.~.~.~.~..XE.~.E.E.OX2X7X8X8X8X8X8X8X8X8X8X8X8X8X8X8X8X8X8X8X8X8X8X8X8X8X",
"8X8X8X8X8X8X8X8X8X8X8X8X8X8X8X8X8X8X8X8X8X8X8X8X8X8X8X4X,X;X:X>X:X:X:X>X>X>X>X>X;X>X>X>X>X>X>X>X>X>X;X<X4X8X8X8X8X8X8X8X8X8X8X8X8X8X8X8X8X8X8X8X8X8X8X8X8X8X",
"8X8X8X8X8X8X8X8X8X8X8X8X8X8X8X8X8X8X8X8X8X8X8X8X8X8X8X8X7X7X7X7X7X7X7X7X7X7X7X7X7X8X7X7X7X7X7X7X7X7X7X8X8X8X8X8X8X8X8X8X8X8X8X8X8X8X8X8X8X8X8X8X8X8X8X8X8X8X",
"8X8X8X8X8X8X8X8X8X8X8X8X8X8X8X8X8X8X8X8X8X8X8X8X8X8X8X8X8X8X8X8X8X8X9X8X8X8X8X8X8X8X8X8X8X8X8X8X8X8X8X8X8X8X8X8X8X8X8X8X8X8X8X8X8X8X8X8X8X8X8X8X8X8X8X8X8X8X",
"8X8X8X8X8X8X8X8X8X8X8X8X8X8X8X8X8X8X8X8X8X8X8X8X8X8X8X8X8X8X8X8X8X8X8X8X8X8X8X8X8X8X8X8X8X8X8X8X8X8X8X8X8X8X8X8X8X8X8X8X8X8X8X8X8X8X8X8X8X8X8X8X8X8X8X8X8X8X",
"8X8X8X8X8X8X8X8X8X8X8X8X8X8X8X8X8X8X8X8X8X8X8X8X8X8X8X8X8X8X8X8X8X8X8X8X8X8X8X8X8X8X8X8X8X8X8X8X8X8X8X8X8X8X8X8X8X8X8X8X8X8X8X8X8X8X8X8X8X8X8X8X8X8X8X8X8X8X",
"8X8X8X8X8X8X8X8X8X8X8X8X8X8X8X8X8X8X8X8X8X8X8X8X8X8X8X8X8X8X8X8X8X8X8X8X8X8X8X8X8X8X8X8X8X8X8X8X8X8X8X8X8X8X8X8X8X8X8X8X8X8X8X8X8X8X8X8X8X8X8X8X8X8X8X8X8X8X",
"8X8X8X8X8X8X8X8X8X8X8X8X8X8X8X8X8X8X8X8X8X8X8X8X8X8X8X8X8X8X8X8X8X8X8X8X8X8X8X8X8X8X8X8X8X8X8X8X8X8X8X8X8X8X8X8X8X8X8X8X8X8X8X8X8X8X8X8X8X8X8X8X8X8X8X8X8X8X",
"8X8X8X8X8X8X8X8X8X8X8X8X8X8X8X8X8X8X8X8X8X8X8X8X8X8X8X8X8X8X8X8X8X8X8X8X8X8X8X8X8X8X8X8X8X8X8X8X8X8X8X8X8X8X8X8X8X8X8X8X8X8X8X8X8X8X8X8X8X8X8X8X8X8X8X8X8X8X",
"8X8X8X8X8X8X8X8X8X8X8X8X8X8X8X8X8X8X8X8X8X8X8X8X8X8X8X8X8X8X8X8X8X8X8X8X8X8X8X8X8X8X8X8X8X8X8X8X8X8X8X8X8X8X8X8X8X8X8X8X8X8X8X8X8X8X8X8X8X8X8X8X8X8X8X8X8X8X",
"8X8X8X8X8X8X8X8X8X8X8X8X8X8X8X8X8X8X8X8X8X8X8X8X8X8X8X8X8X8X8X8X8X8X8X8X8X8X8X8X8X8X8X8X8X8X8X8X8X8X8X8X8X8X8X8X8X8X8X8X8X8X8X8X8X8X8X8X8X8X8X8X8X8X8X8X8X8X",
"8X8X8X8X8X8X8X8X8X8X8X8X8X8X8X8X8X8X8X8X8X8X8X8X8X8X8X8X8X8X8X8X8X8X8X8X8X8X8X8X8X8X8X8X8X8X8X8X8X8X8X8X8X8X8X8X8X8X8X8X8X8X8X8X8X8X8X8X8X8X8X8X8X8X8X8X8X8X",
"8X8X8X8X8X8X8X8X8X8X8X8X8X8X8X8X8X8X8X8X8X8X8X8X8X8X8X8X8X8X8X8X8X8X8X8X8X8X8X8X8X8X8X8X8X8X8X8X8X8X8X8X8X8X8X8X8X8X8X8X8X8X8X8X8X8X8X8X8X8X8X8X8X8X8X8X8X8X",
"8X8X8X8X8X8X8X8X8X8X8X8X8X8X8X8X8X8X8X8X8X8X8X8X8X8X8X8X8X8X8X8X8X8X8X8X8X8X8X8X8X8X8X8X8X8X8X8X8X8X8X8X8X8X8X8X8X8X8X8X8X8X8X8X8X8X8X8X8X8X8X8X8X8X8X8X8X8X",
"8X8X8X8X8X8X8X8X8X8X8X8X8X8X8X8X8X8X8X8X8X8X8X8X8X8X8X8X8X8X8X8X8X8X8X8X8X8X8X8X8X8X8X8X8X8X8X8X8X8X8X8X8X8X8X8X8X8X8X8X8X8X8X8X8X8X8X8X8X8X8X8X8X8X8X8X8X8X",
"8X8X8X8X8X8X8X8X8X8X8X8X8X8X8X8X8X8X8X8X8X8X8X8X8X8X8X8X8X8X8X8X8X8X8X8X8X8X8X8X8X8X8X8X8X8X8X8X8X8X8X8X8X8X8X8X8X8X8X8X8X8X8X8X8X8X8X8X8X8X8X8X8X8X8X8X8X8X"
};
